# xmcd
#
# Track frame offsets:
#	150
#	19865
#	37496
#	61707
#	80334
#	101604
#	120677
#	140942
#	161679
#	184132
#	206856
#	227945
#	250356
#	275805
#
# Disc length: 3953 seconds
#
# Revision: 1
# Processed by: cddbd v1.5.2PL0 Copyright (c) Steve Scherf et al.
# Submitted via: EZCDAudioConverter 8.0.2.1
#
DISCID=d90f6f0e
DTITLE=Đàm Vĩnh Hưng - Góc Khuất
DYEAR=2012
DGENRE=World Pop
TTITLE0=Đàm Vĩnh Hưng - Tình yêu online
TTITLE1=Đàm Vĩnh Hưng - Trốn tránh kỷ niệm
TTITLE2=Đàm Vĩnh Hưng - Mắt buồn
TTITLE3=Đàm Vĩnh Hưng - Chút tình phai
TTITLE4=Đàm Vĩnh Hưng - Trăng bơ vơ
TTITLE5=Đàm Vĩnh Hưng - Trăng bơ vơ (Remix)
TTITLE6=Đàm Vĩnh Hưng - LK Đợi em trong mơ, Unbreak My Heart
TTITLE7=Đàm Vĩnh Hưng, Tina Tình - Đừng yêu anh
TTITLE8=Đàm Vĩnh Hưng - Có những trái ngang
TTITLE9=Đàm Vĩnh Hưng - Chỉ còn đêm nay
TTITLE10=Đàm Vĩnh Hưng - Ngủ mơ
TTITLE11=Đàm Vĩnh Hưng - Đời phong luu
TTITLE12=Đàm Vĩnh Hưng - Góc Khuất
TTITLE13=Đàm Vĩnh Hưng - Góc Khuất (Remix)
EXTD=
EXTT0=
EXTT1=
EXTT2=
EXTT3=
EXTT4=
EXTT5=
EXTT6=
EXTT7=
EXTT8=
EXTT9=
EXTT10=
EXTT11=
EXTT12=
EXTT13=
PLAYORDER=
